<?xml version="1.0" standalone="no"?>
<!DOCTYPE svg PUBLIC "-//W3C//DTD SVG 20010904//EN"
 "http://www.w3.org/TR/2001/REC-SVG-20010904/DTD/svg10.dtd">
<svg version="1.0" xmlns="http://www.w3.org/2000/svg"
 width="32.000000pt" height="32.000000pt" viewBox="0 0 32.000000 32.000000"
 preserveAspectRatio="xMidYMid meet">

<g transform="translate(0.000000,32.000000) scale(0.100000,-0.100000)"
fill="#000000" stroke="none">
<path d="M50 185 c0 -78 2 -85 20 -85 11 0 20 5 20 10 0 6 -4 10 -10 10 -6 0
-10 28 -10 65 l0 65 65 0 c37 0 65 -4 65 -10 0 -5 5 -10 10 -10 6 0 10 9 10
20 0 18 -7 20 -85 20 l-85 0 0 -85z"/>
<path d="M100 135 l0 -85 85 0 85 0 0 85 0 85 -85 0 -85 0 0 -85z m150 0 l0
-65 -65 0 -65 0 0 65 0 65 65 0 65 0 0 -65z"/>
</g>
</svg>
